<svg width="148" height="148" viewBox="0 0 148 148" fill="none" xmlns="http://www.w3.org/2000/svg">
<path fill-rule="evenodd" clip-rule="evenodd" d="M51.2296 81.1139C53.6864 78.7551 57.5901 78.8353 59.9487 81.2921L67.8335 89.5055V43.1667C67.8335 39.7609 70.5943 37 74.0002 37C77.406 37 80.1668 39.7609 80.1668 43.1667V89.5055L88.0515 81.2921C90.4103 78.8353 94.3138 78.7551 96.7706 81.1139C99.2274 83.4726 99.3075 87.3761 96.9488 89.8329L78.4488 109.104C77.2858 110.315 75.6793 111 74.0002 111C72.321 111 70.7146 110.315 69.5515 109.104L51.0516 89.8329C48.693 87.3761 48.7727 83.4726 51.2296 81.1139Z" fill="#4A2E23"/>
</svg>
