<svg width="148" height="148" viewBox="0 0 148 148" fill="none" xmlns="http://www.w3.org/2000/svg">
<path fill-rule="evenodd" clip-rule="evenodd" d="M51.2293 81.1139C53.6862 78.7551 57.5899 78.8353 59.9485 81.2921L67.8332 89.5055V43.1667C67.8332 39.7609 70.5941 37 73.9999 37C77.4058 37 80.1666 39.7609 80.1666 43.1667V89.5055L88.0513 81.2921C90.41 78.8353 94.3135 78.7551 96.7703 81.1139C99.2271 83.4726 99.3073 87.3761 96.9485 89.8329L78.4485 109.104C77.2855 110.315 75.6791 111 73.9999 111C72.3207 111 70.7143 110.315 69.5513 109.104L51.0513 89.8329C48.6928 87.3761 48.7725 83.4726 51.2293 81.1139Z" fill="#A8CBB7"/>
</svg>
